<?xml version="1.0" standalone="no"?>
<!DOCTYPE svg PUBLIC "-//W3C//DTD SVG 20010904//EN"
 "http://www.w3.org/TR/2001/REC-SVG-20010904/DTD/svg10.dtd">
<svg version="1.0" xmlns="http://www.w3.org/2000/svg"
 width="480.000000pt" height="480.000000pt" viewBox="0 0 480.000000 480.000000"
 preserveAspectRatio="xMidYMid meet">

<g transform="translate(0.000000,480.000000) scale(0.100000,-0.100000)"
fill="#000000" stroke="none">
<path d="M2065 4724 c-16 -2 -68 -9 -115 -15 -183 -23 -415 -74 -575 -126
-303 -97 -466 -290 -490 -579 -6 -75 -9 -83 -44 -121 -140 -151 -236 -279
-278 -369 l-28 -59 1 -260 c2 -410 65 -882 151 -1119 28 -77 108 -204 181
-288 26 -30 61 -70 77 -89 77 -91 214 -176 345 -217 61 -19 107 -25 358 -53
140 -15 160 -23 181 -73 37 -85 46 -142 33 -204 -23 -111 -54 -155 -237 -337
-157 -157 -324 -302 -413 -359 -71 -45 -412 -411 -412 -441 0 -13 216 -15
1792 -15 l1792 0 -29 30 c-16 16 -47 42 -69 57 -23 15 -43 31 -46 34 -3 3 -41
29 -86 57 -113 70 -335 180 -489 242 -71 28 -139 56 -150 61 -57 24 -57 23
-56 -92 l2 -105 -56 -92 c-49 -80 -61 -92 -88 -96 -18 -2 -75 -10 -127 -16
-59 -8 -107 -19 -127 -32 -38 -23 -48 -19 -63 26 -8 27 -17 35 -43 39 -61 10
-85 25 -91 55 -6 27 -11 29 -99 47 -59 12 -108 29 -139 48 -44 27 -50 29 -79
16 -31 -12 -33 -11 -58 18 l-26 31 -29 -20 c-27 -20 -29 -21 -55 -4 -77 50
-178 91 -230 93 -52 1 -54 2 -66 36 -22 64 -80 128 -189 207 -59 43 -59 43
-38 60 12 10 54 22 94 29 71 10 75 10 163 -23 50 -19 102 -37 117 -40 14 -3
41 -18 58 -33 31 -25 32 -30 27 -78 -6 -64 1 -76 49 -84 33 -6 39 -10 36 -29
-4 -29 21 -29 48 0 21 23 25 40 20 98 -2 34 -2 35 17 17 11 -9 27 -17 36 -17
35 0 41 39 48 310 10 337 25 534 46 579 24 49 88 76 145 60 57 -15 102 -65
158 -175 59 -116 133 -193 213 -223 65 -24 107 -27 125 -9 9 9 29 -5 86 -60
52 -51 81 -72 99 -72 52 0 57 7 57 81 0 80 12 88 40 26 11 -23 20 -34 20 -24
1 62 124 192 255 269 71 42 232 121 293 144 14 6 -58 9 -190 9 -216 0 -252 4
-498 50 -338 65 -567 196 -623 361 l-13 36 -19 -28 c-22 -36 -86 -94 -102 -94
-6 0 -14 6 -16 13 -3 7 -6 5 -6 -5 -1 -13 -9 -18 -28 -18 -36 0 -114 82 -138
143 l-18 47 53 67 c29 38 77 101 108 141 55 72 55 72 70 50 40 -57 93 -64 163
-20 78 50 269 279 269 324 0 9 -15 36 -33 60 -76 102 -77 105 -51 266 18 116
44 214 78 301 23 58 25 70 16 130 -13 90 -12 238 1 263 6 12 21 31 34 42 49
46 118 206 112 260 -1 14 6 22 23 26 28 7 56 54 66 113 6 33 10 37 38 37 52 0
60 11 52 71 -9 67 -23 94 -97 179 -196 229 -453 374 -769 436 -81 16 -447 28
-525 18z"/>
<path d="M3639 3446 c-20 -7 -53 -26 -74 -42 -38 -28 -178 -194 -171 -202 7
-7 91 40 169 96 91 63 129 72 232 52 69 -13 79 -12 70 11 -10 25 -138 99 -170
99 -11 -1 -36 -7 -56 -14z"/>
<path d="M3724 3162 c-32 -21 -65 -46 -73 -55 -17 -21 -31 -22 -31 -2 0 8 -9
15 -20 15 -16 0 -20 -7 -20 -35 l0 -35 -50 0 c-58 0 -62 -10 -22 -56 24 -27
35 -32 94 -37 51 -5 69 -3 78 8 18 22 30 18 30 -10 0 -21 5 -25 28 -25 41 0
44 9 14 35 -24 21 -25 25 -12 39 8 8 24 16 35 18 17 2 19 -2 17 -24 -3 -27 -1
-28 38 -28 l42 0 -7 39 c-4 24 -2 42 4 46 16 9 14 89 -1 82 -55 -22 -52 -23
-32 8 17 27 17 28 -1 41 -29 21 -47 17 -111 -24z"/>
<path d="M4204 2571 c-52 -31 -51 -41 4 -41 91 0 142 11 142 30 0 10 -7 21
-16 24 -32 12 -100 5 -130 -13z"/>
<path d="M4055 2499 c-10 -16 0 -21 52 -26 l48 -5 -30 21 c-33 23 -60 27 -70
10z"/>
<path d="M4333 2198 c1 -6 -21 -16 -53 -23 -80 -18 -123 -40 -159 -80 -17 -20
-31 -40 -31 -44 0 -13 38 -21 99 -21 43 0 52 3 47 15 -4 12 5 15 54 15 l60 0
0 75 c0 43 -4 75 -10 75 -5 0 -9 -5 -7 -12z"/>
<path d="M4290 2010 c0 -5 5 -10 11 -10 5 0 7 5 4 10 -3 6 -8 10 -11 10 -2 0
-4 -4 -4 -10z"/>
<path d="M2623 1913 c-34 -4 -40 -16 -23 -43 7 -10 10 -11 10 -2 0 7 11 17 25
22 14 5 25 14 25 20 0 5 -1 9 -2 8 -2 0 -18 -3 -35 -5z"/>
<path d="M4248 1532 c-7 -11 -26 -26 -43 -35 -38 -20 -19 -22 28 -2 19 8 37
23 40 35 6 25 -8 26 -25 2z"/>
</g>
</svg>
